<?xml version="1.0" encoding="utf-8"?>
<!-- Generator: Adobe Illustrator 24.2.3, SVG Export Plug-In . SVG Version: 6.00 Build 0)  -->
<svg version="1.1" id="Layer_1" xmlns="http://www.w3.org/2000/svg" xmlns:xlink="http://www.w3.org/1999/xlink" x="0px" y="0px"
	 viewBox="0 0 582.99 90.97" style="enable-background:new 0 0 582.99 90.97;" xml:space="preserve">
<style type="text/css">
	.st0{fill:#FF530D;}
	.st1{fill:#1D1E1C;}
	.st2{fill:#FFFFFF;}
	.st3{fill:#1D1D1B;}
	.st4{fill:#E73563;}
	.st5{fill:none;}
</style>
<g>
	<g>
		<path class="st3" d="M189.52,65.15c-5.45,4.94-11.11,7.1-18.31,7.1c-14.51,0-25.21-10.7-25.21-25.21
			c0-15.02,10.49-25.72,25.31-25.72c7.1,0,12.96,2.47,19.03,7.92l-8.74,7.92c-2.88-2.88-5.97-4.22-9.77-4.22
			c-7.2,0-12.55,5.86-12.55,13.68c0,8.13,5.45,13.99,13.07,13.99c3.4,0,5.86-1.03,9.26-4.01L189.52,65.15z"/>
		<path class="st3" d="M194.35,70.6V1.98h13.07V70.6H194.35z"/>
		<path class="st3" d="M266.57,47.24c0,13.99-11.42,25-26.03,25c-15.02,0-25.82-10.6-25.82-25.41c0-15.12,10.6-25.51,26.03-25.51
			C255.77,21.32,266.57,32.22,266.57,47.24z M227.89,46.83c0,8.23,5.14,13.79,12.76,13.79c7.51,0,12.76-5.66,12.76-13.58
			c0-8.64-4.84-13.99-12.65-13.99C233.03,33.05,227.89,38.5,227.89,46.83z"/>
		<path class="st3" d="M314.52,22.96v30.14c0,7-1.44,10.91-5.35,14.2c-3.81,3.19-9.16,4.94-15.43,4.94
			c-6.58,0-12.24-1.85-15.95-5.25c-3.39-3.09-5.04-7.61-5.04-13.89V22.96h13.07v29.32c0,5.35,3.19,8.95,7.92,8.95
			c4.84,0,7.72-3.09,7.72-8.13V22.96H314.52z"/>
		<path class="st3" d="M360.5,1.98h13.07V70.6H360.5v-6.28c-4.12,5.66-8.64,7.92-15.95,7.92c-14.1,0-23.56-10.08-23.56-25
			c0-8.02,2.67-14.71,7.61-19.34c4.53-4.22,10.29-6.58,16.15-6.58c6.48,0,11.11,2.06,15.74,6.89V1.98z M334.89,47.35
			c0,8.23,5.45,14.4,12.86,14.4c7.2,0,12.76-6.28,12.76-14.51c0-8.64-5.35-14.92-12.65-14.92C340.34,32.33,334.89,38.6,334.89,47.35
			z"/>
		<path class="st3" d="M396.92,22.96v5.97c2.98-5.25,7-7.61,13.07-7.61c6.17,0,10.7,2.78,12.96,7.92c3.19-5.45,7.61-7.92,14.4-7.92
			c4.84,0,8.85,1.54,11.52,4.42c2.88,3.19,3.81,6.48,3.81,13.68V70.6h-13.07v-28.7c0-6.48-2.37-9.57-7.3-9.57
			c-4.84,0-7.61,3.5-7.61,9.57v28.7h-13.07V42.31c0-6.58-2.47-9.98-7.2-9.98c-4.94,0-7.51,3.39-7.51,9.98V70.6h-13.07V22.96H396.92z
			"/>
		<path class="st3" d="M476.55,9.49c0,4.01-3.09,7.1-7.2,7.1c-4.22,0-7.3-3.09-7.3-7.2c0-4.22,3.09-7.3,7.3-7.3
			C473.57,2.08,476.55,5.17,476.55,9.49z M475.83,70.6h-13.07V22.96h13.07V70.6z"/>
		<path class="st3" d="M526.65,65.15c-5.45,4.94-11.11,7.1-18.31,7.1c-14.51,0-25.21-10.7-25.21-25.21
			c0-15.02,10.49-25.72,25.31-25.72c7.1,0,12.96,2.47,19.03,7.92l-8.74,7.92c-2.88-2.88-5.97-4.22-9.77-4.22
			c-7.2,0-12.55,5.86-12.55,13.68c0,8.13,5.45,13.99,13.07,13.99c3.4,0,5.86-1.03,9.26-4.01L526.65,65.15z"/>
		<path class="st3" d="M541.43,49.92c1.13,6.58,5.97,10.7,12.45,10.7c4.84,0,8.95-2.37,11.01-6.17l12.04,3.29
			c-4.73,9.26-13.07,14.51-23.15,14.51c-15.12,0-25.93-10.7-25.93-25.52c0-14.92,10.39-25.41,25.1-25.41
			c15.23,0,25.82,10.7,25.82,26.03l-0.1,2.57H541.43z M565.3,42.41c-1.13-6.28-5.66-10.08-12.14-10.08
			c-6.28,0-10.49,3.6-11.73,10.08H565.3z"/>
	</g>
	<g>
		<path class="st0" d="M42.64,57.22c-10.73,0-18.41-8.26-18.41-19.71c0-11.02,7.54-19.28,17.69-19.28c5.36,0,9.71,1.88,13.77,5.94
			L68,13.01C59.45,5.33,51.19,1.85,41.19,1.85c-20.87,0-35.66,15.08-35.66,36.24c0,20.44,15.08,35.52,35.52,35.52
			c10.15,0,18.12-3.04,25.8-10L55.68,51.57C50.9,55.77,47.42,57.22,42.64,57.22z"/>
		<path class="st0" d="M97.15,1.85c-10,0-18.26,3.48-26.82,11.16l12.32,11.16c4.06-4.06,8.41-5.94,13.77-5.94
			c10.15,0,17.69,8.26,17.69,19.28c0,11.45-7.68,19.71-18.41,19.71c-4.78,0-8.26-1.45-13.05-5.65L71.49,63.6
			c7.68,6.96,15.66,10,25.8,10c20.44,0,35.52-15.08,35.52-35.52C132.81,16.92,118.03,1.85,97.15,1.85z"/>
		<path class="st0" d="M72.9,51.36c0-2.06-1.67-3.73-3.73-3.73c-2.06,0-3.73,1.67-3.73,3.73s1.67,3.73,3.73,3.73
			C71.23,55.09,72.9,53.42,72.9,51.36z"/>
	</g>
</g>
</svg>
