<?xml version="1.0" encoding="utf-8"?>
<!-- Generator: Adobe Illustrator 15.0.0, SVG Export Plug-In . SVG Version: 6.00 Build 0)  -->
<!DOCTYPE svg PUBLIC "-//W3C//DTD SVG 1.1//EN" "http://www.w3.org/Graphics/SVG/1.1/DTD/svg11.dtd">
<svg version="1.1" id="Layer_1" xmlns="http://www.w3.org/2000/svg" xmlns:xlink="http://www.w3.org/1999/xlink" x="0px" y="0px"
	 width="180px" height="56.057px" viewBox="-30 0 180 56.057" enable-background="new -30 0 180 56.057" xml:space="preserve">
<g>
	<polygon fill="#FFFFFF" points="56.361,27.684 54.481,27.684 54.481,29.094 65.803,29.139 65.803,27.803 64.415,27.803 
		69.746,9.275 71.461,9.275 71.461,8.243 60.165,8.196 60.142,9.204 61.479,9.275 	"/>
	<polygon fill="#FFFFFF" points="51.995,29.069 53.919,21.577 41.026,27.684 45.91,9.063 55.539,16.061 57.886,8.148 45.842,8.077 
		38.655,11.247 35.532,22.613 40.347,28.999 	"/>
	<polygon fill="#FFFFFF" points="68.807,27.779 66.951,27.754 66.929,29.165 78.246,29.233 78.246,27.872 76.86,27.872 
		82.216,9.345 83.906,9.371 83.906,8.335 72.612,8.263 72.612,9.299 73.928,9.345 	"/>
	<path fill="#FFFFFF" d="M34.147,37.289h51.145c2.466,0,4.485-2.021,4.485-4.461V4.485C89.777,2.019,87.756,0,85.292,0H34.147
		c-2.466,0-4.462,2.019-4.462,4.485v28.342C29.685,35.27,31.682,37.289,34.147,37.289z M31,4.155
		c0.069-0.327,0.141-0.586,0.236-0.893c0.141-0.28,0.282-0.517,0.493-0.775c0.21-0.236,0.399-0.422,0.657-0.611
		c0.282-0.188,0.542-0.305,0.823-0.4c0.354-0.093,0.634-0.14,0.985-0.162L85.62,1.338c0.305,0.046,0.589,0.117,0.892,0.235
		c0.283,0.14,0.518,0.281,0.775,0.468c0.237,0.211,0.425,0.425,0.612,0.681c0.164,0.282,0.304,0.517,0.399,0.82
		c0.093,0.332,0.143,0.612,0.143,0.965v28.625c-0.047,0.328-0.12,0.609-0.237,0.914c-0.14,0.281-0.281,0.519-0.468,0.776
		c-0.235,0.234-0.422,0.422-0.681,0.609c-0.281,0.166-0.516,0.283-0.823,0.4c-0.352,0.095-0.633,0.118-0.961,0.141L33.82,35.951
		c-0.304-0.047-0.584-0.118-0.891-0.235c-0.282-0.143-0.517-0.283-0.775-0.468c-0.236-0.214-0.422-0.422-0.611-0.683
		c-0.163-0.258-0.282-0.516-0.398-0.82c-0.094-0.329-0.141-0.612-0.141-0.964V4.155H31z"/>
	<path fill="#FFFFFF" d="M-25.156,51.961c-0.315,0.278-0.693,0.419-1.133,0.419c-0.595,0-1.079-0.22-1.451-0.659
		s-0.558-1.176-0.558-2.212c0-0.973,0.188-1.679,0.566-2.113c0.378-0.437,0.869-0.652,1.476-0.652c0.438,0,0.812,0.123,1.119,0.366
		c0.307,0.245,0.508,0.58,0.605,1.005l1.635-0.391c-0.186-0.655-0.465-1.156-0.836-1.506c-0.626-0.591-1.438-0.887-2.438-0.887
		c-1.146,0-2.071,0.377-2.774,1.13C-29.649,47.215-30,48.273-30,49.632c0,1.288,0.35,2.303,1.049,3.044
		c0.699,0.743,1.593,1.113,2.679,1.113c0.877,0,1.603-0.217,2.174-0.65c0.571-0.432,0.979-1.096,1.224-1.989l-1.601-0.507
		C-24.614,51.244-24.84,51.683-25.156,51.961z"/>
	<path fill="#FFFFFF" d="M-18.555,47.592c-0.58,0-1.105,0.129-1.576,0.385c-0.471,0.258-0.834,0.629-1.092,1.116
		c-0.256,0.488-0.384,0.992-0.384,1.512c0,0.682,0.128,1.26,0.384,1.733c0.257,0.473,0.632,0.833,1.125,1.079
		c0.494,0.246,1.011,0.368,1.555,0.368c0.877,0,1.604-0.295,2.183-0.884c0.58-0.589,0.869-1.333,0.869-2.229
		c0-0.888-0.286-1.623-0.859-2.206S-17.658,47.592-18.555,47.592z M-17.521,52.04c-0.277,0.312-0.621,0.467-1.03,0.467
		s-0.753-0.155-1.032-0.467c-0.279-0.312-0.418-0.762-0.418-1.35c0-0.589,0.139-1.038,0.418-1.351
		c0.279-0.312,0.624-0.469,1.032-0.469s0.751,0.157,1.03,0.469c0.278,0.312,0.416,0.759,0.416,1.339
		C-17.104,51.273-17.243,51.726-17.521,52.04z"/>
	<path fill="#FFFFFF" d="M-9.045,48.255c-0.147-0.193-0.364-0.353-0.651-0.478c-0.287-0.124-0.604-0.188-0.949-0.188
		c-0.784,0-1.437,0.337-1.952,1.005v-0.871h-1.457v5.927h1.567v-2.686c0-0.662,0.041-1.116,0.12-1.362
		c0.08-0.246,0.229-0.442,0.444-0.592c0.216-0.149,0.459-0.224,0.731-0.224c0.213,0,0.393,0.053,0.544,0.156
		c0.152,0.103,0.26,0.249,0.328,0.437c0.066,0.188,0.1,0.603,0.1,1.242v3.026h1.567v-3.684c0-0.459-0.03-0.811-0.087-1.055
		C-8.796,48.668-8.898,48.449-9.045,48.255z"/>
	<path fill="#FFFFFF" d="M-5.91,45.563c-0.283,0.154-0.479,0.354-0.585,0.6c-0.106,0.246-0.159,0.618-0.159,1.116v0.445h-0.87v1.233
		h0.87v4.693h1.567v-4.693h1.172v-1.233h-1.172v-0.418c0-0.302,0.05-0.507,0.149-0.612s0.261-0.158,0.489-0.158
		c0.231,0,0.469,0.029,0.72,0.091l0.211-1.094c-0.427-0.134-0.865-0.201-1.312-0.201C-5.265,45.332-5.625,45.408-5.91,45.563z"/>
	<path fill="#FFFFFF" d="M1.534,48.465c-0.51-0.582-1.204-0.875-2.086-0.875c-0.785,0-1.434,0.278-1.947,0.835
		s-0.771,1.324-0.771,2.308c0,0.821,0.196,1.504,0.587,2.043c0.495,0.674,1.257,1.01,2.287,1.01c0.651,0,1.192-0.151,1.626-0.448
		c0.434-0.299,0.75-0.735,0.952-1.309l-1.563-0.264c-0.086,0.299-0.213,0.515-0.379,0.649c-0.168,0.133-0.375,0.2-0.62,0.2
		c-0.362,0-0.661-0.129-0.904-0.388c-0.243-0.26-0.369-0.621-0.38-1.086h3.928C2.289,49.94,2.044,49.046,1.534,48.465z
		 M-1.633,50.18c-0.003-0.428,0.106-0.766,0.328-1.015c0.223-0.249,0.505-0.375,0.847-0.375c0.32,0,0.593,0.118,0.814,0.354
		c0.225,0.235,0.341,0.581,0.352,1.035H-1.633L-1.633,50.18z"/>
	<path fill="#FFFFFF" d="M7.633,48.417C7.15,47.866,6.576,47.59,5.914,47.59c-0.721,0-1.318,0.261-1.791,0.785
		c-0.472,0.523-0.709,1.285-0.709,2.29c0,0.981,0.243,1.747,0.728,2.297c0.486,0.549,1.068,0.821,1.751,0.821
		c0.334,0,0.666-0.082,0.995-0.249c0.329-0.164,0.615-0.416,0.857-0.756v0.872h1.456v-8.182H7.633V48.417z M7.26,52.087
		c-0.253,0.308-0.561,0.46-0.921,0.46c-0.455,0-0.807-0.203-1.061-0.612c-0.176-0.282-0.262-0.741-0.262-1.374
		c0-0.587,0.124-1.029,0.376-1.324c0.252-0.296,0.562-0.445,0.934-0.445c0.383,0,0.698,0.149,0.944,0.451
		c0.246,0.299,0.369,0.788,0.369,1.47C7.639,51.32,7.513,51.78,7.26,52.087z"/>
	<path fill="#FFFFFF" d="M15.316,48.465c-0.51-0.582-1.206-0.875-2.088-0.875c-0.785,0-1.435,0.278-1.947,0.835
		s-0.77,1.324-0.77,2.308c0,0.821,0.195,1.504,0.587,2.043c0.495,0.674,1.257,1.01,2.287,1.01c0.651,0,1.193-0.151,1.626-0.448
		c0.434-0.299,0.75-0.735,0.951-1.309L14.4,51.765c-0.086,0.299-0.212,0.515-0.38,0.649c-0.167,0.133-0.373,0.2-0.619,0.2
		c-0.36,0-0.662-0.129-0.905-0.388c-0.243-0.26-0.369-0.621-0.379-1.086h3.928C16.069,49.94,15.826,49.046,15.316,48.465z
		 M12.147,50.18c-0.003-0.428,0.106-0.766,0.329-1.015c0.222-0.249,0.506-0.375,0.848-0.375c0.32,0,0.591,0.118,0.814,0.354
		c0.224,0.235,0.341,0.581,0.352,1.035H12.147L12.147,50.18z"/>
	<path fill="#FFFFFF" d="M19.61,47.781c-0.2,0.126-0.423,0.389-0.672,0.785v-0.842H17.48v5.927h1.57v-1.83
		c0-1.008,0.043-1.671,0.13-1.987c0.089-0.315,0.208-0.535,0.359-0.655c0.152-0.123,0.339-0.182,0.559-0.182
		c0.226,0,0.472,0.085,0.736,0.255l0.484-1.368c-0.331-0.196-0.675-0.294-1.032-0.294C20.035,47.592,19.809,47.655,19.61,47.781z"/>
	<path fill="#FFFFFF" d="M27.012,51.706l0.017-1.83c0-0.683-0.07-1.149-0.21-1.404c-0.139-0.254-0.381-0.465-0.723-0.63
		c-0.342-0.166-0.863-0.249-1.563-0.249c-0.77,0-1.35,0.138-1.741,0.411c-0.39,0.277-0.666,0.7-0.826,1.274l1.423,0.257
		c0.097-0.277,0.224-0.468,0.38-0.577c0.156-0.11,0.375-0.166,0.654-0.166c0.412,0,0.693,0.064,0.842,0.193
		c0.149,0.129,0.224,0.343,0.224,0.645v0.155c-0.282,0.119-0.791,0.248-1.524,0.384c-0.543,0.105-0.958,0.228-1.248,0.366
		c-0.288,0.141-0.513,0.34-0.672,0.604c-0.161,0.261-0.24,0.56-0.24,0.896c0,0.505,0.175,0.924,0.528,1.255
		c0.351,0.331,0.832,0.497,1.443,0.497c0.345,0,0.671-0.064,0.976-0.195c0.306-0.13,0.592-0.325,0.86-0.586
		c0.012,0.029,0.03,0.091,0.057,0.185c0.06,0.204,0.109,0.357,0.15,0.463h1.551c-0.139-0.281-0.231-0.548-0.282-0.795
		C27.036,52.609,27.012,52.225,27.012,51.706z M25.488,51.118c0,0.375-0.021,0.63-0.062,0.765c-0.06,0.205-0.185,0.378-0.375,0.519
		c-0.257,0.187-0.526,0.278-0.809,0.278c-0.253,0-0.462-0.079-0.625-0.24c-0.164-0.159-0.246-0.349-0.246-0.568
		c0-0.224,0.102-0.407,0.308-0.554c0.133-0.089,0.418-0.179,0.853-0.272c0.436-0.094,0.753-0.173,0.955-0.24v0.313H25.488z"/>
	<path fill="#FFFFFF" d="M30.877,52.486c-0.103,0-0.192-0.026-0.265-0.077c-0.074-0.052-0.12-0.119-0.14-0.198
		c-0.021-0.082-0.03-0.363-0.03-0.847v-2.389h1.071v-1.25h-1.071v-2.092l-1.573,0.914v1.178h-0.72v1.25h0.72v2.585
		c0,0.554,0.016,0.922,0.049,1.104c0.041,0.256,0.116,0.461,0.221,0.612c0.105,0.15,0.271,0.273,0.5,0.369
		c0.227,0.095,0.482,0.141,0.765,0.141c0.462,0,0.875-0.078,1.239-0.233l-0.134-1.217C31.232,52.436,31.023,52.486,30.877,52.486z"
		/>
	<rect x="32.824" y="45.471" fill="#FFFFFF" width="1.568" height="1.451"/>
	<rect x="32.824" y="47.725" fill="#FFFFFF" width="1.568" height="5.927"/>
	<path fill="#FFFFFF" d="M38.911,47.592c-0.58,0-1.105,0.129-1.576,0.385c-0.471,0.258-0.834,0.629-1.092,1.116
		c-0.256,0.488-0.386,0.992-0.386,1.512c0,0.682,0.129,1.26,0.386,1.733c0.256,0.473,0.631,0.833,1.125,1.079
		s1.011,0.368,1.554,0.368c0.877,0,1.606-0.295,2.185-0.884s0.868-1.333,0.868-2.229c0-0.888-0.286-1.623-0.859-2.206
		C40.542,47.883,39.809,47.592,38.911,47.592z M39.946,52.04c-0.277,0.312-0.621,0.467-1.03,0.467c-0.408,0-0.753-0.155-1.032-0.467
		c-0.279-0.312-0.418-0.762-0.418-1.35c0-0.589,0.139-1.038,0.418-1.351c0.279-0.312,0.624-0.469,1.032-0.469
		c0.409,0,0.753,0.157,1.03,0.469c0.277,0.312,0.416,0.759,0.416,1.339C40.362,51.273,40.223,51.726,39.946,52.04z"/>
	<path fill="#FFFFFF" d="M48.421,48.255c-0.146-0.193-0.364-0.353-0.65-0.478c-0.286-0.124-0.604-0.188-0.948-0.188
		c-0.784,0-1.437,0.337-1.953,1.005v-0.871h-1.457v5.927h1.567v-2.686c0-0.662,0.041-1.116,0.12-1.362
		c0.08-0.246,0.229-0.442,0.443-0.592c0.216-0.149,0.459-0.224,0.731-0.224c0.213,0,0.393,0.053,0.544,0.156
		c0.151,0.103,0.26,0.249,0.327,0.437c0.066,0.188,0.101,0.603,0.101,1.242v3.026h1.567v-3.684c0-0.459-0.03-0.811-0.087-1.055
		C48.67,48.668,48.568,48.449,48.421,48.255z"/>
	<path fill="#FFFFFF" d="M55.825,47.592c-0.58,0-1.105,0.129-1.576,0.385c-0.471,0.258-0.834,0.629-1.092,1.116
		c-0.257,0.488-0.386,0.992-0.386,1.512c0,0.682,0.129,1.26,0.386,1.733c0.256,0.473,0.631,0.833,1.125,1.079
		c0.493,0.246,1.011,0.368,1.554,0.368c0.878,0,1.606-0.295,2.186-0.884s0.868-1.333,0.868-2.229c0-0.888-0.286-1.623-0.859-2.206
		C57.456,47.883,56.721,47.592,55.825,47.592z M56.861,52.04c-0.278,0.312-0.621,0.467-1.029,0.467c-0.41,0-0.753-0.155-1.032-0.467
		c-0.279-0.312-0.419-0.762-0.419-1.35c0-0.589,0.14-1.038,0.419-1.351c0.279-0.312,0.624-0.469,1.032-0.469
		c0.408,0,0.751,0.157,1.029,0.469c0.277,0.312,0.416,0.759,0.416,1.339C57.276,51.273,57.138,51.726,56.861,52.04z"/>
	<path fill="#FFFFFF" d="M61.269,45.563c-0.284,0.154-0.48,0.354-0.586,0.6c-0.106,0.246-0.159,0.618-0.159,1.116v0.445h-0.87v1.233
		h0.87v4.693h1.568v-4.693h1.17v-1.233h-1.17v-0.418c0-0.302,0.049-0.507,0.148-0.612c0.098-0.105,0.26-0.158,0.487-0.158
		c0.231,0,0.472,0.029,0.721,0.091l0.211-1.094c-0.428-0.134-0.864-0.201-1.31-0.201C61.91,45.332,61.553,45.408,61.269,45.563z"/>
	<rect x="66.835" y="45.471" fill="#FFFFFF" width="1.653" height="8.181"/>
	<path fill="#FFFFFF" d="M75.27,48.255c-0.148-0.193-0.363-0.353-0.65-0.478c-0.287-0.124-0.601-0.188-0.949-0.188
		c-0.785,0-1.436,0.337-1.954,1.005v-0.871H70.26v5.927h1.567v-2.686c0-0.662,0.04-1.116,0.12-1.362
		c0.082-0.246,0.229-0.442,0.445-0.592c0.214-0.149,0.46-0.224,0.729-0.224c0.214,0,0.393,0.053,0.542,0.156
		c0.15,0.103,0.261,0.249,0.328,0.437s0.1,0.603,0.1,1.242v3.026h1.567v-3.684c0-0.459-0.028-0.811-0.087-1.055
		C75.519,48.668,75.416,48.449,75.27,48.255z"/>
	<path fill="#FFFFFF" d="M81.343,48.417c-0.483-0.551-1.058-0.826-1.72-0.826c-0.721,0-1.32,0.261-1.79,0.785
		c-0.474,0.523-0.71,1.285-0.71,2.29c0,0.981,0.242,1.747,0.728,2.297c0.486,0.549,1.069,0.821,1.749,0.821
		c0.336,0,0.666-0.082,0.996-0.249c0.33-0.164,0.615-0.416,0.855-0.756v0.872h1.459v-8.182h-1.57v2.947H81.343z M80.968,52.087
		c-0.252,0.308-0.56,0.46-0.92,0.46c-0.454,0-0.808-0.203-1.06-0.612c-0.176-0.282-0.262-0.741-0.262-1.374
		c0-0.587,0.123-1.029,0.375-1.324c0.252-0.296,0.562-0.445,0.935-0.445c0.384,0,0.698,0.149,0.943,0.451
		c0.246,0.299,0.369,0.788,0.369,1.47C81.349,51.32,81.223,51.78,80.968,52.087z"/>
	<rect x="84.68" y="45.471" fill="#FFFFFF" width="1.567" height="1.451"/>
	<rect x="84.68" y="47.725" fill="#FFFFFF" width="1.567" height="5.927"/>
	<path fill="#FFFFFF" d="M92.869,51.706l0.018-1.83c0-0.683-0.07-1.149-0.209-1.404c-0.141-0.254-0.381-0.465-0.724-0.63
		c-0.341-0.166-0.861-0.249-1.562-0.249c-0.771,0-1.351,0.138-1.74,0.411c-0.391,0.277-0.665,0.7-0.826,1.274l1.422,0.257
		c0.096-0.277,0.222-0.468,0.38-0.577c0.155-0.11,0.374-0.166,0.653-0.166c0.413,0,0.694,0.064,0.844,0.193s0.223,0.343,0.223,0.645
		v0.155c-0.283,0.119-0.789,0.248-1.525,0.384c-0.543,0.105-0.957,0.228-1.246,0.366c-0.287,0.141-0.513,0.34-0.671,0.604
		c-0.159,0.261-0.24,0.56-0.24,0.896c0,0.505,0.176,0.924,0.527,1.255s0.832,0.497,1.442,0.497c0.345,0,0.672-0.064,0.978-0.195
		c0.305-0.13,0.591-0.325,0.858-0.586c0.012,0.029,0.029,0.091,0.056,0.185c0.059,0.204,0.108,0.357,0.151,0.463h1.551
		c-0.138-0.281-0.231-0.548-0.283-0.795C92.895,52.609,92.869,52.225,92.869,51.706z M91.345,51.118c0,0.375-0.021,0.63-0.059,0.765
		c-0.062,0.205-0.185,0.378-0.375,0.519c-0.258,0.187-0.527,0.278-0.809,0.278c-0.255,0-0.463-0.079-0.627-0.24
		c-0.163-0.159-0.243-0.349-0.243-0.568c0-0.224,0.1-0.407,0.305-0.554c0.135-0.089,0.419-0.179,0.855-0.272
		c0.434-0.094,0.753-0.173,0.952-0.24V51.118z"/>
	<path fill="#FFFFFF" d="M99.653,48.255c-0.149-0.193-0.366-0.353-0.651-0.478c-0.286-0.124-0.603-0.188-0.949-0.188
		c-0.784,0-1.436,0.337-1.953,1.005v-0.871h-1.459v5.927h1.57v-2.686c0-0.662,0.038-1.116,0.12-1.362
		c0.079-0.246,0.226-0.442,0.442-0.592s0.46-0.224,0.73-0.224c0.213,0,0.395,0.053,0.544,0.156c0.149,0.103,0.259,0.249,0.327,0.437
		c0.066,0.188,0.101,0.603,0.101,1.242v3.026h1.567v-3.684c0-0.459-0.031-0.811-0.088-1.055
		C99.899,48.666,99.8,48.449,99.653,48.255z"/>
	<rect x="104.326" y="45.471" fill="#FFFFFF" width="1.652" height="8.181"/>
	<path fill="#FFFFFF" d="M112.76,48.255c-0.146-0.193-0.362-0.353-0.652-0.478c-0.284-0.124-0.601-0.188-0.949-0.188
		c-0.782,0-1.436,0.337-1.951,1.005v-0.871h-1.457v5.927h1.566v-2.686c0-0.662,0.04-1.116,0.121-1.362
		c0.08-0.246,0.227-0.442,0.443-0.592s0.46-0.224,0.73-0.224c0.213,0,0.395,0.053,0.544,0.156c0.151,0.103,0.261,0.249,0.325,0.437
		c0.068,0.188,0.103,0.603,0.103,1.242v3.026h1.567v-3.684c0-0.459-0.029-0.811-0.088-1.055
		C113.008,48.668,112.907,48.449,112.76,48.255z"/>
	<path fill="#FFFFFF" d="M118.834,48.417c-0.483-0.551-1.058-0.826-1.72-0.826c-0.721,0-1.318,0.261-1.79,0.785
		c-0.472,0.523-0.709,1.285-0.709,2.29c0,0.981,0.243,1.747,0.727,2.297c0.484,0.549,1.069,0.821,1.749,0.821
		c0.337,0,0.668-0.082,0.996-0.249c0.331-0.164,0.615-0.416,0.856-0.756v0.872h1.458v-8.182h-1.567V48.417z M118.459,52.087
		c-0.252,0.308-0.56,0.46-0.92,0.46c-0.454,0-0.809-0.203-1.061-0.612c-0.174-0.282-0.264-0.741-0.264-1.374
		c0-0.587,0.126-1.029,0.378-1.324c0.252-0.296,0.562-0.445,0.935-0.445c0.384,0,0.697,0.149,0.943,0.451
		c0.246,0.299,0.369,0.788,0.369,1.47C118.84,51.32,118.711,51.78,118.459,52.087z"/>
	<path fill="#FFFFFF" d="M125.959,50.226c0,0.848-0.041,1.38-0.117,1.598c-0.08,0.219-0.225,0.4-0.437,0.548
		c-0.212,0.146-0.452,0.22-0.72,0.22c-0.234,0-0.428-0.056-0.581-0.164c-0.152-0.111-0.258-0.259-0.313-0.446
		c-0.059-0.188-0.088-0.699-0.088-1.531v-2.723h-1.568v3.75c0,0.56,0.071,0.996,0.212,1.312c0.142,0.316,0.372,0.562,0.686,0.736
		c0.316,0.173,0.674,0.261,1.072,0.261c0.392,0,0.763-0.091,1.113-0.272c0.352-0.182,0.636-0.432,0.851-0.747v0.887h1.458v-5.927
		h-1.567V50.226L125.959,50.226z"/>
	<path fill="#FFFFFF" d="M132.115,49.937c-0.836-0.19-1.325-0.338-1.466-0.442c-0.103-0.077-0.155-0.173-0.155-0.282
		c0-0.129,0.061-0.237,0.179-0.318c0.179-0.115,0.475-0.174,0.888-0.174c0.326,0,0.578,0.062,0.756,0.185s0.296,0.3,0.36,0.531
		l1.477-0.275c-0.147-0.516-0.419-0.908-0.814-1.172c-0.394-0.264-0.996-0.396-1.808-0.396c-0.852,0-1.479,0.176-1.887,0.524
		c-0.406,0.351-0.606,0.782-0.606,1.295c0,0.57,0.234,1.014,0.703,1.333c0.34,0.231,1.14,0.486,2.405,0.765
		c0.272,0.064,0.445,0.134,0.525,0.208c0.074,0.079,0.11,0.178,0.11,0.296c0,0.176-0.067,0.313-0.206,0.419
		c-0.205,0.148-0.51,0.223-0.916,0.223c-0.366,0-0.654-0.079-0.857-0.237c-0.206-0.158-0.341-0.39-0.408-0.694l-1.573,0.24
		c0.146,0.562,0.454,1.007,0.925,1.333c0.47,0.328,1.108,0.491,1.914,0.491c0.891,0,1.562-0.195,2.016-0.585
		c0.454-0.393,0.68-0.858,0.68-1.4c0-0.498-0.162-0.888-0.489-1.166C133.532,50.358,132.949,50.125,132.115,49.937z"/>
	<path fill="#FFFFFF" d="M138.032,52.486c-0.104,0-0.193-0.026-0.267-0.077c-0.072-0.053-0.117-0.119-0.139-0.198
		c-0.022-0.082-0.031-0.363-0.031-0.847v-2.389h1.072v-1.25h-1.072v-2.092l-1.573,0.914v1.178h-0.72v1.25h0.72v2.585
		c0,0.554,0.015,0.922,0.048,1.104c0.041,0.256,0.115,0.461,0.222,0.612c0.105,0.15,0.272,0.273,0.498,0.369
		c0.229,0.095,0.483,0.141,0.767,0.141c0.461,0,0.873-0.078,1.237-0.233l-0.135-1.217C138.387,52.436,138.178,52.486,138.032,52.486
		z"/>
	<path fill="#FFFFFF" d="M142.04,47.781c-0.199,0.126-0.422,0.389-0.673,0.785v-0.842h-1.457v5.927h1.57v-1.83
		c0-1.008,0.044-1.671,0.131-1.987c0.088-0.315,0.207-0.535,0.358-0.655c0.152-0.123,0.34-0.182,0.56-0.182
		c0.226,0,0.471,0.085,0.735,0.255l0.485-1.368c-0.333-0.196-0.676-0.294-1.033-0.294C142.465,47.592,142.239,47.655,142.04,47.781z
		"/>
	<path fill="#FFFFFF" d="M148.375,47.725l-1.384,4.207l-1.417-4.207h-1.668l2.256,5.943c-0.094,0.332-0.227,0.604-0.404,0.818
		c-0.173,0.214-0.443,0.319-0.809,0.319c-0.197,0-0.419-0.023-0.662-0.07l0.139,1.227c0.289,0.062,0.586,0.095,0.887,0.095
		c0.299,0,0.565-0.032,0.801-0.095c0.236-0.063,0.436-0.151,0.597-0.266s0.305-0.261,0.429-0.442
		c0.125-0.185,0.257-0.448,0.395-0.794l0.375-1.031L150,47.725H148.375z"/>
</g>
</svg>
